<svg width="173" height="37" viewBox="0 0 173 37" fill="none" xmlns="http://www.w3.org/2000/svg">
<g filter="url(#filter0_d)">
<path d="M17.442 24.528H8.17L5.89 30H0.456L13.072 0.929998H13.376L25.992 30H19.608L17.442 24.528ZM15.618 19.892L12.92 13.09L10.108 19.892H15.618ZM40.747 12.596C42.3177 12.596 43.6223 13.0647 44.661 14.002C45.725 14.9393 46.2697 16.13 46.295 17.574V30H40.975V19.55C40.899 17.9287 40.0883 17.118 38.543 17.118C37.327 17.118 36.3517 17.688 35.617 18.828C34.8823 19.968 34.515 21.4373 34.515 23.236V30H29.195V13.394H34.021L34.401 16.054C35.009 14.9647 35.845 14.116 36.909 13.508C37.9983 12.9 39.2777 12.596 40.747 12.596ZM58.6355 6.098V13.318H62.6635V17.46H58.6355V30H53.3155V17.46H50.7315V13.318H53.3155V6.098H58.6355ZM65.4206 21.488C65.4206 19.7907 65.8132 18.2707 66.5986 16.928C67.4092 15.5853 68.5366 14.534 69.9806 13.774C71.4499 12.9887 73.1092 12.596 74.9586 12.596C76.8079 12.596 78.4292 12.9887 79.8226 13.774C81.2412 14.534 82.3306 15.5853 83.0906 16.928C83.8506 18.2707 84.2306 19.7907 84.2306 21.488C84.2306 23.1853 83.8506 24.718 83.0906 26.086C82.3306 27.454 81.2412 28.5307 79.8226 29.316C78.4292 30.076 76.7826 30.456 74.8826 30.456C73.0332 30.456 71.3866 30.1013 69.9426 29.392C68.5239 28.6573 67.4092 27.6187 66.5986 26.276C65.8132 24.9333 65.4206 23.3373 65.4206 21.488ZM70.7786 21.526C70.7786 22.8433 71.1586 23.9453 71.9186 24.832C72.6786 25.6933 73.6412 26.124 74.8066 26.124C76.0226 26.124 76.9979 25.6933 77.7326 24.832C78.4926 23.9707 78.8726 22.8687 78.8726 21.526C78.8726 20.1833 78.4926 19.0813 77.7326 18.22C76.9979 17.3587 76.0226 16.928 74.8066 16.928C73.6412 16.928 72.6786 17.3713 71.9186 18.258C71.1586 19.1193 70.7786 20.2087 70.7786 21.526ZM93.8175 30.342C92.4495 30.342 91.1702 30.1013 89.9795 29.62C88.7889 29.1387 87.8009 28.4673 87.0155 27.606L89.2195 24.68C90.6889 26.048 92.0695 26.732 93.3615 26.732C94.0455 26.732 94.5902 26.6307 94.9955 26.428C95.4262 26.2 95.6415 25.8707 95.6415 25.44C95.6415 24.9333 95.4009 24.5533 94.9195 24.3C94.4382 24.0213 93.8935 23.7933 93.2855 23.616C92.7029 23.4387 92.3102 23.3247 92.1075 23.274C90.6635 22.818 89.5869 22.1467 88.8775 21.26C88.1682 20.348 87.8135 19.3093 87.8135 18.144C87.8135 17.2573 88.0415 16.396 88.4975 15.56C88.9789 14.6987 89.7135 14.002 90.7015 13.47C91.6895 12.9127 92.9182 12.634 94.3875 12.634C95.7555 12.634 96.9209 12.7733 97.8835 13.052C98.8462 13.3307 99.7709 13.7867 100.658 14.42L98.6435 17.536C98.1369 17.1307 97.5669 16.8013 96.9335 16.548C96.3255 16.2693 95.7682 16.13 95.2615 16.13C94.6535 16.13 94.1595 16.2567 93.7795 16.51C93.3995 16.7633 93.2095 17.0673 93.2095 17.422C93.1842 17.954 93.3995 18.3593 93.8555 18.638C94.3369 18.8913 95.0715 19.1573 96.0595 19.436C96.2115 19.4867 96.3635 19.5373 96.5155 19.588C96.6929 19.6387 96.8702 19.6893 97.0475 19.74C99.6569 20.6013 100.962 22.172 100.962 24.452C100.962 25.516 100.696 26.4913 100.164 27.378C99.6315 28.2647 98.8209 28.9867 97.7315 29.544C96.6675 30.076 95.3629 30.342 93.8175 30.342ZM116.97 12.596C118.54 12.596 119.845 13.0647 120.884 14.002C121.948 14.9393 122.492 16.13 122.518 17.574V30H117.198V19.55C117.122 17.9287 116.311 17.118 114.766 17.118C113.55 17.118 112.574 17.688 111.84 18.828C111.105 19.968 110.738 21.4373 110.738 23.236V30H105.418V0.0179987H110.624V16.016C111.232 14.952 112.068 14.116 113.132 13.508C114.221 12.9 115.5 12.596 116.97 12.596ZM134.782 23.084L133.3 24.186V30H127.98V0.0179987H133.3V18.79L141.204 12.976L144.434 15.826L138.544 20.272L145.042 30H138.848L134.782 23.084ZM166.213 13.394V30H160.893V27.948C159.297 29.62 157.448 30.456 155.345 30.456C152.888 30.456 150.887 29.7213 149.341 28.252C147.821 26.7827 147.061 24.604 147.061 21.716C147.061 19.892 147.429 18.296 148.163 16.928C148.923 15.5347 149.924 14.458 151.165 13.698C152.407 12.938 153.737 12.558 155.155 12.558C156.625 12.558 157.79 12.786 158.651 13.242C159.513 13.6727 160.273 14.2933 160.931 15.104L161.273 13.394H166.213ZM156.865 26.124C158.715 26.124 160.057 25.288 160.893 23.616V19.55C160.589 18.7393 160.057 18.0933 159.297 17.612C158.563 17.1307 157.689 16.89 156.675 16.89C155.51 16.89 154.509 17.3207 153.673 18.182C152.863 19.0433 152.457 20.1327 152.457 21.45C152.457 22.3113 152.66 23.1093 153.065 23.844C153.471 24.5533 154.003 25.1107 154.661 25.516C155.345 25.9213 156.08 26.124 156.865 26.124Z" fill="white"/>
</g>
<defs>
<filter id="filter0_d" x="0.456055" y="0.0175781" width="171.757" height="36.438" filterUnits="userSpaceOnUse" color-interpolation-filters="sRGB">
<feFlood flood-opacity="0" result="BackgroundImageFix"/>
<feColorMatrix in="SourceAlpha" type="matrix" values="0 0 0 0 0 0 0 0 0 0 0 0 0 0 0 0 0 0 127 0"/>
<feOffset dx="3" dy="3"/>
<feGaussianBlur stdDeviation="1.5"/>
<feColorMatrix type="matrix" values="0 0 0 0 0 0 0 0 0 0 0 0 0 0 0 0 0 0 0.35 0"/>
<feBlend mode="normal" in2="BackgroundImageFix" result="effect1_dropShadow"/>
<feBlend mode="normal" in="SourceGraphic" in2="effect1_dropShadow" result="shape"/>
</filter>
</defs>
</svg>
