<svg width="32" height="32" viewBox="0 0 32 32" fill="none" xmlns="http://www.w3.org/2000/svg">
<circle cx="16" cy="16" r="16" fill="white"/>
<g clip-path="url(#clip0)">
<path d="M23.9379 21.0889L21.3115 18.4623C20.7884 17.9412 19.9221 17.9571 19.3808 18.4986L18.0576 19.8215C17.974 19.7754 17.8875 19.7273 17.7965 19.6762C16.961 19.2133 15.8174 18.5787 14.614 17.3744C13.407 16.1676 12.7718 15.0222 12.3075 14.1861C12.2584 14.0975 12.2115 14.0121 12.1651 13.931L13.0532 13.0443L13.4898 12.6072C14.0319 12.0649 14.0469 11.1988 13.525 10.6763L10.8987 8.04938C10.3768 7.52758 9.51007 7.54341 8.9679 8.08573L8.22771 8.83017L8.24794 8.85025C7.99974 9.16695 7.79235 9.5322 7.638 9.92609C7.49573 10.301 7.40715 10.6588 7.36665 11.0173C7.01986 13.8923 8.33364 16.5198 11.8991 20.0853C16.8275 25.0134 20.7993 24.6411 20.9706 24.6229C21.3438 24.5783 21.7014 24.4892 22.0649 24.348C22.4553 24.1955 22.8203 23.9884 23.1368 23.7407L23.153 23.7551L23.9029 23.0208C24.4439 22.4786 24.4595 21.6122 23.9379 21.0889Z" fill="#8B8B8B"/>
</g>
<defs>
<clipPath id="clip0">
<rect width="17.0061" height="17.0061" fill="white" transform="translate(7.31299 7.6485)"/>
</clipPath>
</defs>
</svg>
